<svg width="170" height="51" viewBox="0 0 170 51" fill="none" xmlns="http://www.w3.org/2000/svg">
<g filter="url(#filter0_d_458_13)">
<path d="M26.048 12.88L15.464 24.76L26.444 36.676V37H19.028L9.956 26.416V37H4.016V12.556H9.956V23.176L18.956 12.556H26.048V12.88ZM35.7295 37.54C32.5615 37.54 30.0415 36.64 28.2055 34.804C26.3695 32.968 25.4335 30.484 25.4335 27.352C25.4335 24.364 26.3335 21.916 28.1695 20.008C30.0055 18.136 32.3815 17.2 35.3695 17.2C38.2135 17.2 40.4095 18.136 41.9575 19.972C43.5055 21.808 44.2975 24.256 44.2975 27.244C44.2975 28.072 44.2615 28.684 44.1535 29.152H31.2295C31.4815 31.456 33.7495 32.644 36.4855 32.644C39.1135 32.644 41.3815 32.068 43.2895 30.88H43.6135V35.956C41.3455 37 38.7175 37.54 35.7295 37.54ZM31.1935 25.264H38.8255C38.8255 23.068 37.5295 21.808 35.3695 21.808C32.9575 21.808 31.4455 22.96 31.1935 25.264ZM53.8245 42.58H47.5965V42.256L51.7005 34.012L44.0325 18.028V17.704H50.2965L54.7965 28.252L59.3685 17.704H65.5965V18.028L53.8245 42.58Z" fill="#04AF3D"/>
<path d="M97.956 37H92.016V12.556H103.068C108.792 12.556 112.572 15.292 112.572 20.476C112.572 25.696 108.792 28.396 103.068 28.396H97.956V37ZM97.956 17.596V23.392H103.068C105.336 23.392 106.488 22.42 106.488 20.476C106.488 18.64 105.084 17.596 103.068 17.596H97.956ZM120.299 37H114.683V11.692H120.299V37ZM137.401 37V34.696C136.213 36.532 134.269 37.432 131.605 37.432C128.941 37.432 126.817 36.46 125.197 34.516C123.577 32.608 122.785 30.196 122.785 27.352C122.785 24.508 123.577 22.096 125.197 20.152C126.817 18.244 128.941 17.272 131.605 17.272C134.233 17.272 136.177 18.208 137.401 20.044V17.704H143.053V37H137.401ZM129.661 30.916C130.489 31.888 131.605 32.356 132.973 32.356C134.341 32.356 135.457 31.888 136.321 30.916C137.149 29.98 137.581 28.792 137.581 27.352C137.581 24.508 135.709 22.348 132.973 22.348C130.237 22.348 128.401 24.508 128.401 27.352C128.401 28.792 128.833 29.98 129.661 30.916ZM153.883 42.58H147.655V42.256L151.759 34.012L144.091 18.028V17.704H150.355L154.855 28.252L159.427 17.704H165.655V18.028L153.883 42.58Z" fill="white"/>
<path d="M79.1114 17.6094V25.1154L77.6102 23.1138H74.1074L79.1114 17.6094Z" fill="white" stroke="white"/>
<path d="M76.4584 10.5049L66 22.0642" stroke="#04AF3D" stroke-width="2"/>
<path d="M81.4126 5H86.917V13.2566" stroke="#04AF3D" stroke-width="2"/>
<path d="M86.9165 13.2559V24.2647H90.2192V31.4205H86.9165V36.9249" stroke="white" stroke-width="2"/>
<path d="M79.2106 36.9253V31.4209H66" stroke="white" stroke-width="2"/>
</g>
<defs>
<filter id="filter0_d_458_13" x="0.0161133" y="4" width="169.639" height="46.5801" filterUnits="userSpaceOnUse" color-interpolation-filters="sRGB">
<feFlood flood-opacity="0" result="BackgroundImageFix"/>
<feColorMatrix in="SourceAlpha" type="matrix" values="0 0 0 0 0 0 0 0 0 0 0 0 0 0 0 0 0 0 127 0" result="hardAlpha"/>
<feOffset dy="4"/>
<feGaussianBlur stdDeviation="2"/>
<feComposite in2="hardAlpha" operator="out"/>
<feColorMatrix type="matrix" values="0 0 0 0 0 0 0 0 0 0 0 0 0 0 0 0 0 0 0.25 0"/>
<feBlend mode="normal" in2="BackgroundImageFix" result="effect1_dropShadow_458_13"/>
<feBlend mode="normal" in="SourceGraphic" in2="effect1_dropShadow_458_13" result="shape"/>
</filter>
</defs>
</svg>
